<svg width="32" height="32" viewBox="0 0 32 32" fill="none" xmlns="http://www.w3.org/2000/svg">
  <defs>
    <linearGradient id="dartGradient" x1="0%" y1="0%" x2="100%" y2="100%">
      <stop offset="0%" style="stop-color:#1786B4;stop-opacity:1" />
      <stop offset="100%" style="stop-color:#0EA5E9;stop-opacity:1" />
    </linearGradient>
  </defs>
  <!-- D Letter -->
  <path d="M4 6 L4 26 L12 26 C17 26 20 23 20 16 C20 9 17 6 12 6 Z M8 10 L12 10 C14.5 10 16 11.5 16 16 C16 20.5 14.5 22 12 22 L8 22 Z" fill="url(#dartGradient)"/>
  <!-- Chart Line -->
  <path d="M22 20 L24 18 L26 16 L28 12 L28 24 L22 24 Z" fill="url(#dartGradient)" opacity="0.8"/>
  <!-- Data Points -->
  <circle cx="24" cy="18" r="1.5" fill="#0EA5E9"/>
  <circle cx="26" cy="16" r="1.5" fill="#0EA5E9"/>
  <circle cx="28" cy="12" r="1.5" fill="#F59E0B"/>
</svg>
